# xmcd
# Copyright (C) 1995-1998 Ti Kan
#
# Track frame offsets:
#       150
#       15792
#       34552
#       52769
#       69195
#       86145
#       103798
#       139781
#       155038
#       171090
#       186759
#
# Disc length: 2756 seconds
#
# Revision: 10
# Processed by: cddbd v1.5.1PL0 Copyright (c) Steve Scherf et al.
# Submitted via: CD-Transfer v1.0
#
DISCID=800ac20b
DTITLE=Usher Ft. Shyne, Kanye West and Twista - Euro Express 579
DYEAR=04
DGENRE=
TTITLE0=Evil Eye
TTITLE1=Slow Motion (Clean)
TTITLE2=8th World Wonder
TTITLE3=Sunshine
TTITLE4=Tamale (Radio Edit)
TTITLE5=Et C'est Parti (Radio Edit) Lyrics!
TTITLE6=Forca (Swiss American Federation Mix)
TTITLE7=Lola's Theme (Vocal Radio Edit)
TTITLE8=Space-Taxi (Radio Vers.)
TTITLE9=Put Em High (Jj Radio Edit)
TTITLE10=Confessions Part Ii (Remix) (Clean)
EXTD=
EXTT0=
EXTT1=
EXTT2=
EXTT3=
EXTT4=
EXTT5=
EXTT6=
EXTT7=
EXTT8=
EXTT9=
EXTT10=
PLAYORDER=
